<!DOCTYPE svg PUBLIC "-//W3C//DTD SVG 20010904//EN" "http://www.w3.org/TR/2001/REC-SVG-20010904/DTD/svg10.dtd">
<svg version="1.0" xmlns="http://www.w3.org/2000/svg" width="300px" height="38px" viewBox="0 0 3000 380" preserveAspectRatio="xMidYMid meet">
<g id="layer101" fill="#ededed" stroke="none">
 <path d="M466 335 c-4 -11 -11 -12 -36 -3 -37 12 -114 6 -135 -12 -8 -7 -15 -27 -15 -45 0 -41 34 -71 97 -88 30 -8 43 -16 41 -27 -4 -18 -68 -26 -97 -11 -16 9 -21 7 -26 -10 -4 -11 -4 -23 -1 -27 12 -11 121 -14 148 -3 35 13 58 67 58 137 0 29 5 56 10 59 16 10 12 21 -14 33 -19 8 -25 8 -30 -3z m-41 -45 c30 -11 32 -46 4 -63 -18 -12 -70 5 -95 31 -33 32 30 55 91 32z"/>
 <path d="M1415 340 c-4 -6 -34 -8 -73 -4 -81 6 -115 -8 -120 -49 -6 -52 29 -82 137 -113 11 -3 11 -7 1 -19 -14 -17 -85 -20 -95 -5 -8 13 -35 -6 -35 -25 0 -16 32 -25 97 -25 78 0 101 24 112 120 5 41 12 82 15 90 7 18 -29 45 -39 30z m-27 -64 c14 -14 14 -17 -3 -36 -22 -24 -32 -25 -73 -4 -38 18 -46 30 -38 51 8 20 91 13 114 -11z"/>
 <path d="M2038 334 c-74 -39 -77 -169 -6 -218 13 -9 43 -16 70 -16 55 0 87 27 108 90 33 101 -79 195 -172 144z m116 -67 c10 -39 6 -60 -16 -84 -27 -29 -71 -30 -98 -3 -52 52 11 143 81 118 15 -5 30 -19 33 -31z"/>
 <path d="M2548 334 c-55 -17 -92 -59 -67 -75 22 -14 37 -11 44 10 7 23 88 40 114 24 25 -16 19 -36 -14 -45 -112 -32 -135 -47 -135 -84 0 -59 126 -89 184 -43 14 11 26 24 26 29 0 16 -33 20 -50 5 -9 -8 -31 -15 -48 -15 -25 0 -32 4 -32 20 0 20 17 31 97 60 37 14 48 37 33 74 -16 43 -83 61 -152 40z"/>
 <path d="M178 333 c-33 -5 -33 -9 -12 -52 22 -45 29 -107 14 -126 -17 -20 -50 -19 -80 4 -21 17 -25 29 -28 95 -4 72 -5 76 -28 76 -24 0 -24 0 -24 -115 l0 -115 25 0 c14 0 25 5 25 10 0 7 6 7 19 0 31 -16 96 -12 120 8 12 9 24 34 28 54 8 53 -6 168 -20 167 -7 -1 -24 -4 -39 -6z"/>
 <path d="M624 332 c-30 -5 -44 -43 -44 -122 l0 -70 -30 0 c-20 0 -30 -5 -30 -15 0 -10 10 -15 30 -15 28 0 30 -2 30 -40 0 -51 26 -54 55 -7 16 25 28 33 58 35 29 3 37 7 37 23 0 16 -7 19 -55 19 -62 0 -61 -3 -49 98 6 41 10 52 25 52 10 0 23 -9 29 -20 6 -11 20 -20 31 -20 18 0 20 4 14 28 -3 15 -10 30 -14 35 -11 11 -63 23 -87 19z"/>
 <path d="M1891 331 c-12 -8 -12 -12 -2 -25 7 -8 13 -42 14 -75 3 -96 -30 -112 -101 -48 -20 19 -22 27 -16 84 7 62 6 63 -18 63 -24 0 -25 -2 -31 -97 -4 -54 -7 -122 -7 -150 0 -50 2 -53 25 -53 22 0 25 4 25 34 0 39 17 49 66 40 78 -14 104 16 104 121 0 94 -21 130 -59 106z"/>
 <path d="M2800 333 c-8 -3 -27 -17 -42 -31 -24 -22 -28 -34 -28 -78 0 -46 4 -57 34 -88 29 -32 39 -36 82 -36 49 0 85 16 111 50 28 35 16 47 -73 76 -73 24 -87 26 -95 13 -14 -22 -12 -25 34 -39 70 -22 80 -29 66 -46 -16 -20 -60 -17 -88 6 -34 29 -35 91 -1 120 20 18 34 21 70 17 24 -3 46 -10 48 -16 5 -16 29 -13 36 5 9 23 9 24 -29 40 -34 14 -96 18 -125 7z"/>
 <path d="M786 307 c-24 -37 -38 -99 -34 -152 3 -43 6 -50 26 -53 21 -3 22 0 22 65 0 38 6 75 13 84 21 28 52 31 80 8 25 -19 27 -27 27 -90 0 -67 1 -69 25 -69 l25 0 0 114 0 113 -85 2 c-77 1 -86 -1 -99 -22z"/>
 <path d="M1010 215 c0 -98 2 -115 16 -115 9 0 23 9 33 21 16 20 18 20 55 5 54 -22 86 -21 86 4 0 14 -10 22 -38 29 -20 6 -52 23 -70 38 -27 23 -34 37 -39 81 -5 42 -9 52 -24 52 -17 0 -19 -10 -19 -115z"/>
 <path d="M1500 180 l0 -150 25 0 c25 0 25 0 25 99 0 62 6 114 15 141 21 59 20 60 -25 60 l-40 0 0 -150z"/>
 <path d="M2272 302 c-23 -31 -37 -125 -27 -171 5 -22 12 -31 27 -31 18 0 20 5 15 38 -7 57 11 122 40 135 19 8 29 7 51 -10 24 -18 27 -27 30 -92 3 -66 5 -71 25 -71 22 0 22 2 19 114 l-3 114 -79 1 c-75 1 -80 -1 -98 -27z"/>
 </g>

</svg>