<svg id="レイヤー_1" xmlns="http://www.w3.org/2000/svg" viewBox="0 0 754 50"><style>.st0{fill:#f5f3f0}</style><switch><g><path class="st0" d="M.78 1.64c.29-.27.72-.41 1.29-.41h8.03c.62 0 1.07.14 1.36.41.29.27.43.73.43 1.37v24.62c0 3.69.8 6.52 2.39 8.48 1.59 1.96 3.94 2.94 7.03 2.94 3.05 0 5.4-.98 7.03-2.94 1.64-1.96 2.45-4.79 2.45-8.48V3.01c0-.64.14-1.09.43-1.37.29-.27.72-.41 1.29-.41h8.03c.62 0 1.07.14 1.36.41.29.27.43.73.43 1.37v25.44c0 4.7-.89 8.65-2.69 11.87-1.79 3.21-4.3 5.63-7.53 7.25C28.9 49.19 25.16 50 20.92 50c-4.11 0-7.71-.78-10.78-2.33s-5.47-3.92-7.2-7.11C1.21 37.37.35 33.38.35 28.59V3.01c0-.64.14-1.09.43-1.37zM53.11.34c.44 0 .92.17 1.43.51.51.34 1.18.92 2.02 1.74l23.89 23.12V3.01c0-.64.14-1.09.43-1.37.29-.27.72-.41 1.29-.41h8.03c1.2 0 1.79.59 1.79 1.78v44.32c0 1.78-.53 2.67-1.59 2.67-.44 0-.92-.17-1.43-.51-.51-.34-1.18-.92-2.02-1.74L63.07 24.62v22.71c0 .64-.14 1.09-.43 1.37-.29.27-.74.41-1.36.41h-8.03c-.58 0-1.01-.15-1.29-.44-.29-.3-.43-.74-.43-1.33V3.01c-.01-1.78.52-2.67 1.58-2.67zM142.02 42c0 .41-.33.93-1 1.57a26.48 26.48 0 0 1-8.03 4.75c-2.96 1.12-6.08 1.68-9.36 1.68-4.64 0-8.85-1.06-12.6-3.18-3.76-2.12-6.71-5.05-8.86-8.79-2.15-3.74-3.22-7.93-3.22-12.59 0-4.79 1.08-9.09 3.25-12.89 2.17-3.81 5.16-6.79 8.99-8.96 3.83-2.17 8.15-3.25 12.97-3.25 3.27 0 6.36.57 9.26 1.71 2.9 1.14 5.52 2.71 7.86 4.72.53.46.8.89.8 1.3 0 .37-.16.78-.46 1.23l-3.85 5.61c-.4.59-.82.89-1.26.89-.4 0-.84-.18-1.33-.55-3.58-2.64-7.28-3.97-11.08-3.97-2.52 0-4.79.58-6.8 1.74-2.01 1.16-3.58 2.8-4.71 4.92s-1.69 4.55-1.69 7.28c0 2.64.56 5.02 1.69 7.11 1.13 2.1 2.7 3.74 4.71 4.92 2.01 1.19 4.28 1.78 6.8 1.78 4.07 0 7.81-1.34 11.21-4.04.53-.41.97-.62 1.33-.62.22 0 .42.07.6.21.18.14.38.34.6.62l3.78 5.61c.26.43.4.82.4 1.19zM156.45 46.92c-.4.87-.82 1.45-1.26 1.74-.44.3-1.08.44-1.92.44h-8.09c-.97 0-1.46-.32-1.46-.96 0-.41.11-.82.33-1.23l21.17-43.43c.62-1.32 1.15-2.23 1.59-2.74.44-.5.93-.75 1.46-.75s1.01.25 1.43.75c.42.5.96 1.41 1.63 2.74l21.3 43.43c.22.41.33.8.33 1.16 0 .68-.51 1.03-1.53 1.03h-8.49c-.84 0-1.47-.15-1.89-.44-.42-.3-.83-.88-1.23-1.74l-11.74-24.9-11.63 24.9zM197.68 1.64c.29-.27.72-.41 1.29-.41h16.32c6.5 0 11.39 1.32 14.66 3.97 3.27 2.65 4.91 6.57 4.91 11.77 0 3.28-.71 6.09-2.12 8.41-1.42 2.33-3.38 4.15-5.9 5.47l10.29 16.07c.31.46.46.87.46 1.23 0 .64-.51.96-1.53.96h-8.96c-.93 0-1.65-.15-2.16-.44-.51-.3-1.01-.83-1.49-1.61l-7.5-12.45c-.22-.36-.45-.62-.7-.75-.24-.14-.59-.21-1.03-.21h-4.45c-.4 0-.66.07-.8.21-.13.14-.2.41-.2.82v12.65c0 .64-.14 1.09-.43 1.37-.29.27-.74.41-1.36.41h-8.03c-.58 0-1.01-.15-1.29-.44-.29-.3-.43-.74-.43-1.33V3.01c.02-.64.17-1.09.45-1.37zm23.26 20.21c1.33-.93 1.99-2.36 1.99-4.28 0-1.91-.66-3.29-1.99-4.14-1.33-.84-3.36-1.26-6.1-1.26h-5.04c-.4 0-.66.08-.8.24-.13.16-.2.42-.2.79v8.96c0 .41.07.7.2.86.13.16.4.24.8.24h5.04c2.74 0 4.77-.47 6.1-1.41zM301.38 42c0 .41-.33.93-1 1.57a26.48 26.48 0 0 1-8.03 4.75C289.39 49.44 286.27 50 283 50c-4.64 0-8.85-1.06-12.6-3.18-3.76-2.12-6.71-5.05-8.86-8.79-2.15-3.74-3.22-7.93-3.22-12.59 0-4.79 1.08-9.09 3.25-12.89 2.17-3.81 5.16-6.79 8.99-8.96S278.71.34 283.53.34c3.27 0 6.36.57 9.26 1.71 2.9 1.14 5.52 2.71 7.86 4.72.53.46.8.89.8 1.3 0 .37-.16.78-.46 1.23l-3.85 5.61c-.4.59-.82.89-1.26.89-.4 0-.84-.18-1.33-.55-3.58-2.64-7.28-3.97-11.08-3.97-2.52 0-4.79.58-6.8 1.74-2.01 1.16-3.58 2.8-4.71 4.92s-1.69 4.55-1.69 7.28c0 2.64.56 5.02 1.69 7.11 1.13 2.1 2.7 3.74 4.71 4.92 2.01 1.19 4.28 1.78 6.8 1.78 4.07 0 7.81-1.34 11.21-4.04.53-.41.97-.62 1.33-.62.22 0 .42.07.6.21.18.14.38.34.6.62l3.78 5.61c.26.43.39.82.39 1.19zM309.24 12.45c2.14-3.78 5.1-6.75 8.86-8.89 3.76-2.14 8-3.21 12.74-3.21 4.78 0 9.06 1.06 12.84 3.18s6.74 5.06 8.86 8.82c2.12 3.76 3.19 8.04 3.19 12.82s-1.07 9.06-3.22 12.83c-2.14 3.76-5.12 6.7-8.92 8.82S335.5 50 330.72 50c-4.69 0-8.91-1.05-12.67-3.15-3.76-2.1-6.7-5.03-8.82-8.79s-3.19-8.01-3.19-12.76c-.02-4.78 1.05-9.07 3.2-12.85zm28.13 24.86c1.97-1.16 3.53-2.79 4.68-4.89 1.15-2.1 1.73-4.49 1.73-7.18 0-2.78-.56-5.22-1.69-7.32-1.13-2.1-2.68-3.73-4.64-4.89s-4.17-1.74-6.6-1.74c-2.43 0-4.63.58-6.6 1.74-1.97 1.16-3.51 2.8-4.61 4.92-1.11 2.12-1.66 4.55-1.66 7.28 0 2.74.55 5.15 1.66 7.25 1.11 2.1 2.63 3.72 4.58 4.86 1.95 1.14 4.13 1.71 6.57 1.71 2.41.01 4.61-.58 6.58-1.74zM363.08 1.23c.27-.46.66-.68 1.2-.68.4 0 .82.16 1.26.48.44.32.97.84 1.59 1.57l19.11 21.34L405.28 2.6c.71-.77 1.26-1.31 1.66-1.61.4-.3.8-.44 1.19-.44 1.06 0 1.59.87 1.59 2.6v44.19c0 .59-.13 1.04-.4 1.33-.27.3-.71.44-1.33.44h-8.03c-1.19 0-1.79-.59-1.79-1.78V26.68l-9.49 11.15c-.62.68-1.11 1.16-1.46 1.44-.35.27-.71.41-1.06.41-.35 0-.71-.14-1.06-.41-.35-.27-.82-.75-1.39-1.44l-9.49-11.15v20.66c0 .64-.14 1.09-.43 1.37-.29.27-.74.41-1.36.41h-8.03c-.58 0-1.01-.15-1.29-.44-.29-.3-.43-.74-.43-1.33V3.15c0-.82.13-1.46.4-1.92zM419.64 1.64c.29-.27.72-.41 1.29-.41h15.59c13.67 0 20.5 5.77 20.5 17.31 0 5.84-1.79 10.25-5.37 13.23-3.58 2.99-8.78 4.48-15.59 4.48h-4.31c-.4 0-.66.08-.8.24-.13.16-.2.42-.2.79v10.05c0 .64-.14 1.09-.43 1.37-.29.27-.74.41-1.36.41h-8.03c-.58 0-1.01-.15-1.29-.44-.29-.3-.43-.74-.43-1.33V3.01c0-.64.14-1.09.43-1.37zm23.16 21.99c1.53-1.12 2.29-2.79 2.29-5.03 0-2.23-.74-3.86-2.22-4.89-1.48-1.03-3.75-1.54-6.8-1.54h-4.31c-.4 0-.66.08-.8.24-.13.16-.2.42-.2.79v11.08c0 .37.07.63.2.79.13.16.4.24.8.24h4.31c2.96 0 5.2-.56 6.73-1.68zM465.82 12.45c2.14-3.78 5.1-6.75 8.86-8.89 3.76-2.14 8-3.21 12.74-3.21 4.78 0 9.06 1.06 12.84 3.18s6.74 5.06 8.86 8.82c2.12 3.76 3.19 8.04 3.19 12.82s-1.07 9.06-3.22 12.83c-2.14 3.76-5.12 6.7-8.92 8.82S492.06 50 487.28 50c-4.69 0-8.91-1.05-12.67-3.15-3.76-2.1-6.7-5.03-8.82-8.79s-3.19-8.01-3.19-12.76c0-4.78 1.07-9.07 3.22-12.85zm28.13 24.86c1.97-1.16 3.53-2.79 4.68-4.89 1.15-2.1 1.73-4.49 1.73-7.18 0-2.78-.56-5.22-1.69-7.32-1.13-2.1-2.68-3.73-4.64-4.89s-4.17-1.74-6.6-1.74c-2.43 0-4.63.58-6.6 1.74-1.97 1.16-3.51 2.8-4.61 4.92s-1.66 4.55-1.66 7.28c0 2.74.55 5.15 1.66 7.25 1.11 2.1 2.63 3.72 4.58 4.86 1.95 1.14 4.13 1.71 6.57 1.71 2.41.01 4.61-.58 6.58-1.74zM519.36 1.64c.29-.27.72-.41 1.29-.41h8.03c.62 0 1.07.14 1.36.41.29.27.43.73.43 1.37v24.62c0 3.69.8 6.52 2.39 8.48 1.59 1.96 3.94 2.94 7.03 2.94 3.05 0 5.4-.98 7.03-2.94 1.64-1.96 2.45-4.79 2.45-8.48V3.01c0-.64.14-1.09.43-1.37.29-.27.72-.41 1.29-.41h8.03c.62 0 1.07.14 1.36.41.29.27.43.73.43 1.37v25.44c0 4.7-.89 8.65-2.69 11.87-1.79 3.21-4.3 5.63-7.53 7.25-3.23 1.62-6.97 2.43-11.21 2.43-4.11 0-7.71-.78-10.78-2.33-3.07-1.55-5.47-3.92-7.2-7.11-1.73-3.19-2.59-7.18-2.59-11.97V3.01c.02-.64.16-1.09.45-1.37zM571.68.34c.44 0 .92.17 1.43.51.51.34 1.18.92 2.02 1.74l23.89 23.12V3.01c0-.64.14-1.09.43-1.37.29-.27.72-.41 1.29-.41h8.03c1.2 0 1.79.59 1.79 1.78v44.32c0 1.78-.53 2.67-1.59 2.67-.44 0-.92-.17-1.43-.51-.51-.34-1.18-.92-2.02-1.74l-23.88-23.12v22.71c0 .64-.14 1.09-.43 1.37-.29.27-.74.41-1.36.41h-8.03c-.58 0-1.01-.15-1.29-.44-.29-.3-.43-.74-.43-1.33V3.01c-.02-1.78.52-2.67 1.58-2.67zM620.47 1.64c.29-.27.72-.41 1.29-.41h16.32c5.35 0 9.93.96 13.73 2.87 3.8 1.92 6.7 4.63 8.69 8.14 1.99 3.51 2.99 7.64 2.99 12.38 0 4.97-1.04 9.29-3.12 12.96-2.08 3.67-5.12 6.51-9.12 8.52-4 2.01-8.77 3.01-14.3 3.01h-15.19c-.58 0-1.01-.15-1.29-.44-.29-.3-.43-.74-.43-1.33V3.01c0-.64.15-1.09.43-1.37zm27.34 33.04c2.5-2.33 3.75-5.56 3.75-9.71 0-2.6-.55-4.86-1.66-6.77-1.11-1.92-2.73-3.4-4.88-4.45-2.15-1.05-4.77-1.57-7.86-1.57h-4.58c-.4 0-.66.08-.8.24-.13.16-.2.42-.2.79v23.94c0 .37.07.63.2.79.13.16.4.24.8.24h4.31c4.78-.01 8.42-1.18 10.92-3.5zM670.9 1.64c.29-.27.72-.41 1.29-.41h27.86c1.2 0 1.79.59 1.79 1.78v7.39c0 .64-.14 1.09-.43 1.37-.29.27-.74.41-1.36.41H683c-.4 0-.66.08-.8.24-.13.16-.2.42-.2.79v5.33c0 .41.07.68.2.82.13.14.4.21.8.21h14.86c.62 0 1.06.15 1.33.44s.4.76.4 1.4v7.32c0 .59-.13 1.04-.4 1.33s-.71.44-1.33.44H683c-.4 0-.66.08-.8.24-.13.16-.2.42-.2.79v5.61c0 .37.07.63.2.79.13.16.4.24.8.24h17.12c.62 0 1.07.14 1.36.41.29.27.43.73.43 1.37v7.39c0 1.19-.6 1.78-1.79 1.78h-27.93c-.58 0-1.01-.15-1.29-.44-.29-.3-.43-.74-.43-1.33V3.01c0-.64.14-1.09.43-1.37zM710.97 1.64c.29-.27.72-.41 1.29-.41h16.32c5.35 0 9.93.96 13.73 2.87 3.8 1.92 6.7 4.63 8.69 8.14 1.99 3.51 2.99 7.64 2.99 12.38 0 4.97-1.04 9.29-3.12 12.96-2.08 3.67-5.12 6.51-9.12 8.52-4 2.01-8.77 3.01-14.3 3.01h-15.19c-.58 0-1.01-.15-1.29-.44-.29-.3-.43-.74-.43-1.33V3.01c0-.64.15-1.09.43-1.37zm27.34 33.04c2.5-2.33 3.75-5.56 3.75-9.71 0-2.6-.55-4.86-1.66-6.77-1.11-1.92-2.73-3.4-4.88-4.45-2.15-1.05-4.77-1.57-7.86-1.57h-4.58c-.4 0-.66.08-.8.24-.13.16-.2.42-.2.79v23.94c0 .37.07.63.2.79.13.16.4.24.8.24h4.31c4.78-.01 8.42-1.18 10.92-3.5z"/></g></switch></svg>