<svg id="レイヤー_1" xmlns="http://www.w3.org/2000/svg" viewBox="0 0 250 90"><style>.st0{fill:#f5f3f0}</style><path class="st0" d="M.9 2.2c.3-.3.8-.4 1.4-.4h8.5c.7 0 1.1.1 1.4.4.3.3.5.8.5 1.4v25.9c0 3.9.8 6.9 2.5 8.9 1.7 2.1 4.1 3.1 7.4 3.1 3.2 0 5.7-1 7.4-3.1 1.7-2.1 2.6-5 2.6-8.9V3.7c0-.7.2-1.2.5-1.4.3-.3.8-.4 1.4-.4H43c.7 0 1.1.1 1.4.4.3.3.5.8.5 1.4v26.8c0 4.9-.9 9.1-2.8 12.5-1.9 3.4-4.5 5.9-7.9 7.6-3.4 1.7-7.3 2.6-11.8 2.6-4.3 0-8.1-.8-11.4-2.4s-6-4.3-7.8-7.6C1.4 39.8.5 35.6.5 30.6V3.7C.4 3 .6 2.5.9 2.2zM56 .8c.5 0 1 .2 1.5.5.5.4 1.2 1 2.1 1.8l25.1 24.3V3.7c0-.7.2-1.2.5-1.4.3-.3.8-.4 1.4-.4H95c1.3 0 1.9.6 1.9 1.9v46.7c0 1.9-.6 2.8-1.7 2.8-.5 0-1-.2-1.5-.5-.5-.4-1.2-1-2.1-1.8L66.5 26.4v23.9c0 .7-.2 1.2-.5 1.4-.3.3-.8.4-1.4.4h-8.5c-.6 0-1.1-.2-1.4-.5-.3-.3-.5-.8-.5-1.4V3.7c.1-1.9.7-2.9 1.8-2.9zM149.6 44.7c0 .4-.3 1-1 1.7-2.5 2.2-5.3 3.8-8.5 5-3.1 1.2-6.4 1.8-9.8 1.8-4.9 0-9.3-1.1-13.3-3.3-4-2.2-7.1-5.3-9.3-9.3-2.3-3.9-3.4-8.4-3.4-13.2 0-5 1.1-9.6 3.4-13.6s5.4-7.2 9.5-9.4c4-2.3 8.6-3.4 13.7-3.4 3.4 0 6.7.6 9.7 1.8 3 1.2 5.8 2.9 8.3 5 .6.5.8.9.8 1.4 0 .4-.2.8-.5 1.3l-4.1 5.9c-.4.6-.9.9-1.3.9s-.9-.2-1.4-.6c-3.8-2.8-7.7-4.2-11.7-4.2-2.7 0-5 .6-7.2 1.8-2.1 1.2-3.8 3-5 5.2s-1.8 4.8-1.8 7.7c0 2.8.6 5.3 1.8 7.5 1.2 2.2 2.8 3.9 5 5.2 2.1 1.2 4.5 1.9 7.2 1.9 4.3 0 8.2-1.4 11.8-4.2.6-.4 1-.6 1.4-.6.2 0 .4.1.6.2.2.1.4.4.6.6l4 5.9c.3.2.5.6.5 1zM164.8 49.9c-.4.9-.9 1.5-1.3 1.8-.5.3-1.1.5-2 .5H153c-1 0-1.5-.3-1.5-1 0-.4.1-.9.3-1.3L174 4.2c.7-1.4 1.2-2.4 1.7-2.9s1-.8 1.5-.8 1.1.3 1.5.8c.4.5 1 1.5 1.7 2.9l22.4 45.7c.2.4.3.8.3 1.2 0 .7-.5 1.1-1.6 1.1h-8.9c-.9 0-1.6-.2-2-.5-.4-.3-.9-.9-1.3-1.8L177 23.7l-12.2 26.2zM208.2 2.2c.3-.3.8-.4 1.4-.4h17.2c6.8 0 12 1.4 15.4 4.2 3.4 2.8 5.2 6.9 5.2 12.4 0 3.5-.7 6.4-2.2 8.9-1.5 2.4-3.6 4.4-6.2 5.8L249.6 50c.3.5.5.9.5 1.3 0 .7-.5 1-1.6 1H239c-1 0-1.5-.1-2.1-.4-.5-.3-1.1-.9-1.6-1.7l-7.9-13.1c-.2-.4-.5-.6-.7-.8-.3-.1-.6-.2-1.1-.2h-4.7c-.4 0-.7.1-.8.2-.1.1-.2.4-.2.9v13.3c0 .7-.2 1.2-.5 1.4-.3.3-.8.4-1.4.4h-8.5c-.6 0-1.1-.2-1.4-.5-.3-.3-.5-.8-.5-1.4V3.7c.1-.7.3-1.2.6-1.5zm24.5 21.3c1.4-1 2.1-2.5 2.1-4.5s-.7-3.5-2.1-4.4c-1.4-.9-3.5-1.3-6.4-1.3H221c-.4 0-.7.1-.8.3-.1.2-.2.4-.2.8v9.4c0 .4.1.7.2.9.1.2.4.3.8.3h5.3c2.8 0 5-.5 6.4-1.5z"/><g><path class="st0" d="M21.5 85.5c0 .2-.2.5-.5.8-1.2 1-2.5 1.8-4 2.4s-3 .8-4.7.8c-2.3 0-4.4-.5-6.3-1.6-1.9-1.1-3.3-2.5-4.4-4.4-1.1-1.9-1.6-4-1.6-6.3 0-2.4.5-4.5 1.6-6.4 1.1-1.9 2.6-3.4 4.5-4.5s4.1-1.6 6.5-1.6c1.6 0 3.2.3 4.6.9 1.4.6 2.8 1.4 3.9 2.4.3.2.4.4.4.6 0 .2-.1.4-.2.6L19.4 72c-.2.3-.4.4-.6.4-.2 0-.4-.1-.7-.3-1.8-1.3-3.6-2-5.5-2-1.3 0-2.4.3-3.4.9-1 .6-1.8 1.4-2.4 2.5S6 75.8 6 77.2c0 1.3.3 2.5.8 3.5.6 1 1.3 1.9 2.4 2.5 1 .6 2.1.9 3.4.9 2 0 3.9-.7 5.6-2 .3-.2.5-.3.7-.3.1 0 .2 0 .3.1l.3.3 1.9 2.8c0 .1.1.3.1.5zM25.4 70.8c1.1-1.9 2.5-3.4 4.4-4.4 1.9-1.1 4-1.6 6.4-1.6 2.4 0 4.5.5 6.4 1.6s3.4 2.5 4.4 4.4c1.1 1.9 1.6 4 1.6 6.4s-.5 4.5-1.6 6.4c-1.1 1.9-2.6 3.3-4.5 4.4s-4 1.6-6.4 1.6c-2.3 0-4.4-.5-6.3-1.6-1.9-1-3.3-2.5-4.4-4.4-1.1-1.9-1.6-4-1.6-6.4 0-2.4.5-4.5 1.6-6.4zm14 12.4c1-.6 1.8-1.4 2.3-2.4.6-1 .9-2.2.9-3.6s-.3-2.6-.8-3.7c-.6-1-1.3-1.9-2.3-2.4-1-.6-2.1-.9-3.3-.9-1.2 0-2.3.3-3.3.9-1 .6-1.7 1.4-2.3 2.5-.6 1.1-.8 2.3-.8 3.6 0 1.4.3 2.6.8 3.6.6 1 1.3 1.9 2.3 2.4 1 .6 2.1.9 3.3.9 1.2 0 2.3-.3 3.2-.9zM52.3 65.2c.1-.2.3-.3.6-.3.2 0 .4.1.6.2.2.2.5.4.8.8l9.5 10.6 9.5-10.6c.4-.4.6-.7.8-.8.2-.1.4-.2.6-.2.5 0 .8.4.8 1.3v22c0 .3-.1.5-.2.7-.1.1-.4.2-.7.2h-4c-.6 0-.9-.3-.9-.9V77.9L65 83.5l-.7.7c-.2.1-.4.2-.5.2-.2 0-.4-.1-.5-.2-.2-.1-.4-.4-.7-.7l-4.7-5.6v10.3c0 .3-.1.5-.2.7-.1.1-.4.2-.7.2h-4c-.3 0-.5-.1-.6-.2-.1-.1-.2-.4-.2-.7v-22c-.1-.5-.1-.8.1-1zM80.5 65.4c.1-.1.4-.2.6-.2h7.8c6.8 0 10.2 2.9 10.2 8.6 0 2.9-.9 5.1-2.7 6.6-1.8 1.5-4.4 2.2-7.8 2.2h-2.2c-.2 0-.3 0-.4.1.1.2 0 .3 0 .5v5c0 .3-.1.5-.2.7-.1.1-.4.2-.7.2h-4c-.3 0-.5-.1-.6-.2-.1-.1-.2-.4-.2-.7V66.1c0-.4.1-.6.2-.7zm11.6 11c.8-.6 1.1-1.4 1.1-2.5s-.4-1.9-1.1-2.4c-.7-.5-1.9-.8-3.4-.8h-2.2c-.2 0-.3 0-.4.1 0 0-.1.2-.1.4v5.5c0 .2 0 .3.1.4.1.1.2.1.4.1h2.2c1.5 0 2.6-.3 3.4-.8zM103.5 70.8c1.1-1.9 2.5-3.4 4.4-4.4 1.9-1.1 4-1.6 6.4-1.6 2.4 0 4.5.5 6.4 1.6s3.4 2.5 4.4 4.4c1.1 1.9 1.6 4 1.6 6.4s-.5 4.5-1.6 6.4c-1.1 1.9-2.6 3.3-4.5 4.4s-4 1.6-6.4 1.6c-2.3 0-4.4-.5-6.3-1.6-1.9-1-3.3-2.5-4.4-4.4-1.1-1.9-1.6-4-1.6-6.4 0-2.4.6-4.5 1.6-6.4zm14.1 12.4c1-.6 1.8-1.4 2.3-2.4.6-1 .9-2.2.9-3.6s-.3-2.6-.8-3.7c-.6-1-1.3-1.9-2.3-2.4-1-.6-2.1-.9-3.3-.9s-2.3.3-3.3.9c-1 .6-1.7 1.4-2.3 2.5-.6 1.1-.8 2.3-.8 3.6 0 1.4.3 2.6.8 3.6.6 1 1.3 1.9 2.3 2.4 1 .6 2.1.9 3.3.9 1.1 0 2.2-.3 3.2-.9zM130.3 65.4c.1-.1.4-.2.6-.2h4c.3 0 .5.1.7.2.1.1.2.4.2.7v12.3c0 1.8.4 3.3 1.2 4.2.8 1 2 1.5 3.5 1.5s2.7-.5 3.5-1.5c.8-1 1.2-2.4 1.2-4.2V66.1c0-.3.1-.5.2-.7.1-.1.4-.2.6-.2h4c.3 0 .5.1.7.2.1.1.2.4.2.7v12.7c0 2.3-.4 4.3-1.3 5.9-.9 1.6-2.1 2.8-3.8 3.6-1.6.8-3.5 1.2-5.6 1.2-2.1 0-3.8-.4-5.4-1.2-1.5-.8-2.7-2-3.6-3.5-.9-1.6-1.3-3.6-1.3-6V66.1c.1-.4.2-.6.4-.7zM156.4 64.7c.2 0 .5.1.7.3.3.2.6.5 1 .9L170 77.4V66.1c0-.3.1-.5.2-.7.1-.1.4-.2.6-.2h4c.6 0 .9.3.9.9v22.1c0 .9-.3 1.3-.8 1.3-.2 0-.5-.1-.7-.3-.3-.2-.6-.5-1-.9l-11.9-11.5v11.3c0 .3-.1.5-.2.7-.1.1-.4.2-.7.2h-4c-.3 0-.5-.1-.6-.2-.1-.1-.2-.4-.2-.7v-22c0-.9.2-1.4.8-1.4zM180.7 65.4c.1-.1.4-.2.6-.2h8.1c2.7 0 5 .5 6.9 1.4 1.9 1 3.3 2.3 4.3 4.1 1 1.8 1.5 3.8 1.5 6.2 0 2.5-.5 4.6-1.6 6.5-1 1.8-2.6 3.2-4.6 4.2-2 1-4.4 1.5-7.1 1.5h-7.6c-.3 0-.5-.1-.6-.2-.1-.1-.2-.4-.2-.7V66.1c.1-.4.2-.6.3-.7zm13.6 16.5c1.2-1.2 1.9-2.8 1.9-4.8 0-1.3-.3-2.4-.8-3.4-.6-1-1.4-1.7-2.4-2.2-1.1-.5-2.4-.8-3.9-.8h-2.3c-.2 0-.3 0-.4.1-.1.1-.1.2-.1.4v11.9c0 .2 0 .3.1.4.1.1.2.1.4.1h2.2c2.3 0 4.1-.6 5.3-1.7zM205.9 65.4c.1-.1.4-.2.6-.2h13.9c.6 0 .9.3.9.9v3.7c0 .3-.1.5-.2.7-.1.1-.4.2-.7.2h-8.5c-.2 0-.3 0-.4.1-.1.1-.1.2-.1.4v2.7c0 .2 0 .3.1.4.1.1.2.1.4.1h7.4c.3 0 .5.1.7.2.1.1.2.4.2.7V79c0 .3-.1.5-.2.7-.1.1-.4.2-.7.2h-7.4c-.2 0-.3 0-.4.1-.1.1-.1.2-.1.4v2.8c0 .2 0 .3.1.4.1.1.2.1.4.1h8.5c.3 0 .5.1.7.2.1.1.2.4.2.7v3.7c0 .6-.3.9-.9.9h-13.9c-.3 0-.5-.1-.6-.2-.1-.1-.2-.4-.2-.7V66.1c0-.4 0-.6.2-.7zM225.9 65.4c.1-.1.4-.2.6-.2h8.1c2.7 0 5 .5 6.9 1.4 1.9 1 3.3 2.3 4.3 4.1 1 1.8 1.5 3.8 1.5 6.2 0 2.5-.5 4.6-1.6 6.5-1 1.8-2.6 3.2-4.6 4.2-2 1-4.4 1.5-7.1 1.5h-7.6c-.3 0-.5-.1-.6-.2-.1-.1-.2-.4-.2-.7V66.1c.1-.4.1-.6.3-.7zm13.6 16.5c1.2-1.2 1.9-2.8 1.9-4.8 0-1.3-.3-2.4-.8-3.4-.6-1-1.4-1.7-2.4-2.2-1.1-.5-2.4-.8-3.9-.8H232c-.2 0-.3 0-.4.1-.1.1-.1.2-.1.4v11.9c0 .2 0 .3.1.4.1.1.2.1.4.1h2.2c2.2 0 4.1-.6 5.3-1.7z"/></g></svg>