<!DOCTYPE svg PUBLIC "-//W3C//DTD SVG 20010904//EN" "http://www.w3.org/TR/2001/REC-SVG-20010904/DTD/svg10.dtd">
<svg version="1.0" xmlns="http://www.w3.org/2000/svg" width="300px" height="146px" viewBox="0 0 3000 1460" preserveAspectRatio="xMidYMid meet">
<g id="layer101" fill="#ededed" stroke="none">
 <path d="M829 1361 c-112 -35 -179 -136 -179 -276 0 -150 81 -263 211 -294 154 -37 298 94 307 279 3 64 0 84 -23 135 -33 75 -66 111 -130 141 -52 25 -132 31 -186 15z m159 -79 c40 -26 82 -98 89 -152 14 -117 -78 -232 -186 -232 -64 0 -98 17 -139 72 -33 43 -34 46 -30 125 3 67 8 86 30 118 59 87 162 117 236 69z"/>
 <path d="M2025 1360 c-85 -15 -166 -73 -180 -130 -5 -21 -1 -27 27 -39 29 -13 33 -13 42 3 34 56 77 82 159 97 52 10 75 9 112 -1 61 -17 109 -61 100 -92 -12 -40 -37 -55 -145 -91 -150 -50 -173 -62 -209 -102 -40 -46 -43 -103 -6 -151 50 -66 193 -93 308 -59 59 18 76 29 101 67 17 27 17 27 -15 44 -27 14 -34 14 -43 3 -28 -37 -66 -50 -133 -47 -58 3 -68 6 -86 29 -40 55 15 117 138 154 116 35 167 72 180 132 15 72 -40 148 -128 177 -49 16 -149 19 -222 6z"/>
 <path d="M2467 1210 c-4 -85 -10 -212 -13 -282 l-7 -128 236 0 237 0 0 35 0 35 -119 0 c-167 0 -206 7 -242 42 -36 37 -37 62 -1 95 26 25 30 25 122 19 52 -4 116 -9 143 -12 36 -5 47 -3 47 7 0 8 3 24 6 35 5 20 1 22 -58 28 -35 3 -90 11 -123 16 -33 5 -82 12 -108 16 l-49 5 7 42 c4 23 14 54 22 68 29 50 46 54 212 50 163 -3 171 -1 171 46 0 20 -6 21 -102 27 -57 3 -164 7 -239 9 l-136 2 -6 -155z"/>
 <path d="M60 1080 l0 -280 35 0 35 0 0 59 c0 70 12 106 48 144 25 26 30 27 127 27 96 0 102 -1 135 -29 34 -28 35 -31 39 -115 l3 -86 39 0 39 0 0 228 c0 125 3 251 6 280 l7 52 -47 0 -46 0 0 -133 0 -132 -127 8 c-73 5 -139 15 -154 23 -41 21 -69 88 -69 167 l0 67 -35 0 -35 0 0 -280z"/>
 <path d="M1402 1335 c-51 -29 -74 -54 -102 -112 -28 -60 -53 -232 -45 -318 9 -102 10 -105 54 -105 l37 0 -9 73 c-12 91 6 240 38 312 37 85 112 128 182 104 50 -16 71 -37 93 -98 32 -83 27 -185 -17 -368 -5 -22 -3 -23 66 -23 l71 0 0 151 c0 154 -7 198 -42 279 -42 96 -97 130 -207 130 -62 0 -84 -5 -119 -25z"/>
 <path d="M370 621 c-30 -10 -55 -21 -54 -25 1 -4 13 -33 27 -64 51 -110 61 -212 26 -256 -16 -21 -29 -26 -62 -26 -107 0 -157 86 -157 273 l0 97 -34 0 -33 0 -6 -67 c-4 -38 -7 -137 -7 -220 l0 -153 40 0 c38 0 40 2 40 30 l0 29 50 -31 c65 -41 149 -44 199 -9 57 41 74 90 72 216 -1 110 -19 217 -37 221 -5 2 -34 -5 -64 -15z"/>
 <path d="M899 606 c-11 -23 -13 -24 -46 -9 -52 21 -164 28 -218 13 -58 -16 -85 -52 -85 -113 0 -36 6 -50 33 -78 36 -37 127 -86 179 -96 66 -12 76 -42 26 -73 -42 -25 -98 -25 -149 -1 l-40 19 -15 -24 c-9 -13 -14 -30 -11 -38 9 -22 72 -36 162 -36 71 0 86 3 122 26 22 15 47 38 55 53 22 37 38 121 38 200 0 39 7 84 16 106 8 20 14 38 12 39 -69 44 -65 43 -79 12z m-69 -79 c37 -18 45 -26 42 -47 -6 -67 -49 -97 -115 -79 -52 14 -124 63 -133 91 -18 56 116 79 206 35z"/>
 <path d="M2640 623 c0 -5 -4 -14 -8 -21 -7 -10 -20 -10 -67 3 -115 29 -216 15 -259 -36 -41 -48 -31 -114 26 -166 29 -27 121 -71 165 -79 69 -13 77 -54 16 -79 -47 -20 -82 -19 -136 4 l-44 19 -16 -33 -16 -34 44 -16 c32 -13 66 -16 132 -14 80 4 94 7 126 32 58 44 70 77 76 207 4 78 11 125 23 147 l16 32 -35 21 c-38 22 -43 24 -43 13z m-90 -90 c65 -24 70 -29 60 -64 -12 -39 -28 -59 -59 -70 -51 -20 -191 54 -191 101 0 48 102 66 190 33z"/>
 <path d="M1155 598 c-33 -29 -55 -129 -55 -250 l0 -88 -50 0 -50 0 0 -35 0 -35 50 0 50 0 0 -71 0 -70 38 3 c29 2 38 8 40 24 2 12 18 39 36 60 31 35 37 38 99 42 l67 4 0 34 0 34 -100 0 -100 0 0 106 c0 58 5 125 11 150 10 39 15 44 39 44 27 0 47 -17 75 -65 8 -14 18 -16 43 -10 28 6 32 10 26 28 -12 42 -56 96 -86 106 -51 18 -104 13 -133 -11z"/>
 <path d="M1532 609 c-78 -31 -123 -185 -106 -358 l7 -71 36 0 36 0 -3 110 c-5 165 27 230 112 230 31 0 84 -32 108 -65 4 -5 8 -70 8 -142 l0 -133 42 0 41 0 -6 113 c-4 61 -7 160 -7 220 l0 107 -35 0 c-28 0 -35 -4 -35 -20 0 -19 0 -19 -42 0 -45 21 -118 25 -156 9z"/>
 <path d="M1900 438 c0 -101 -3 -200 -6 -221 l-7 -37 42 0 c33 0 41 3 41 18 0 39 68 69 96 43 12 -12 116 -41 147 -41 25 0 37 16 37 50 0 13 -11 19 -48 24 -53 7 -147 58 -199 109 l-33 31 0 103 0 103 -35 0 -35 0 0 -182z"/>
 <path d="M2800 330 l0 -280 40 0 40 0 0 163 c0 169 11 249 48 345 l20 52 -74 0 -74 0 0 -280z"/>
 </g>

</svg>